<svg xmlns="http://www.w3.org/2000/svg" width="1200" height="860" viewBox="0 0 1200 860" role="img" aria-labelledby="title desc">
  <title id="title">Lambrín acústico</title>
  <desc id="desc">Placeholder visual para Lambrín acústico</desc>
  <defs>
    <linearGradient id="bg" x1="0" y1="0" x2="1" y2="1">
      <stop offset="0" stop-color="#ffffff" />
      <stop offset="0.48" stop-color="#e2e8f0" />
      <stop offset="1" stop-color="#ffffff" />
    </linearGradient>
  </defs>
  <rect width="1200" height="860" fill="url(#bg)" />
  <circle cx="1010" cy="130" r="150" fill="#22c55e" opacity="0.14" />
  <circle cx="170" cy="730" r="220" fill="#334155" opacity="0.08" />
  <g>
    <rect x="72" y="82" width="1056" height="624" rx="28" fill="#ffffff" opacity="0.86" />
    <g clip-path="inset(94 84 166 84 round 22)">
      <rect x="40" y="72" width="56" height="430" rx="10" fill="#334155" opacity="0.58"  /><rect x="118" y="72" width="56" height="430" rx="10" fill="#22c55e" opacity="0.6599999999999999"  /><rect x="196" y="72" width="56" height="430" rx="10" fill="#334155" opacity="0.74"  /><rect x="274" y="72" width="56" height="430" rx="10" fill="#22c55e" opacity="0.82"  /><rect x="352" y="72" width="56" height="430" rx="10" fill="#334155" opacity="0.58"  /><rect x="430" y="72" width="56" height="430" rx="10" fill="#22c55e" opacity="0.6599999999999999"  /><rect x="508" y="72" width="56" height="430" rx="10" fill="#334155" opacity="0.74"  /><rect x="586" y="72" width="56" height="430" rx="10" fill="#22c55e" opacity="0.82"  /><rect x="664" y="72" width="56" height="430" rx="10" fill="#334155" opacity="0.58"  /><rect x="742" y="72" width="56" height="430" rx="10" fill="#22c55e" opacity="0.6599999999999999"  /><rect x="820" y="72" width="56" height="430" rx="10" fill="#334155" opacity="0.74"  /><rect x="898" y="72" width="56" height="430" rx="10" fill="#22c55e" opacity="0.82"  /><rect x="976" y="72" width="56" height="430" rx="10" fill="#334155" opacity="0.58"  />
      <rect x="84" y="94" width="1032" height="500" fill="none" stroke="#22c55e" stroke-width="7" opacity="0.55" />
    </g>
  </g>
  <g>
    <rect x="92" y="630" width="520" height="88" rx="44" fill="#334155" opacity="0.92" />
    <text x="132" y="684" fill="#ffffff" font-family="Inter, Arial, sans-serif" font-size="34" font-weight="800">Lambrín acústico</text>
    <text x="132" y="724" fill="#e2e8f0" font-family="Inter, Arial, sans-serif" font-size="20" font-weight="700">Imagen referencial 3</text>
  </g>
  <g transform="translate(990 650)">
    <circle cx="0" cy="0" r="54" fill="#22c55e" />
    <path d="M-22 2 C-5 -38 34 -30 24 4 C18 26 -3 34 -24 23" fill="none" stroke="#ffffff" stroke-width="10" stroke-linecap="round" />
  </g>
</svg>